<?xml version="1.0" encoding="UTF-8" standalone="no"?>
<!-- Created with Inkscape (http://www.inkscape.org/) -->

<svg
   xmlns:dc="http://purl.org/dc/elements/1.1/"
   xmlns:cc="http://creativecommons.org/ns#"
   xmlns:rdf="http://www.w3.org/1999/02/22-rdf-syntax-ns#"
   xmlns:svg="http://www.w3.org/2000/svg"
   xmlns="http://www.w3.org/2000/svg"
   xmlns:sodipodi="http://sodipodi.sourceforge.net/DTD/sodipodi-0.dtd"
   xmlns:inkscape="http://www.inkscape.org/namespaces/inkscape"
   width="39.436432"
   height="15.34346"
   viewBox="0 0 10.434223 4.0596237"
   version="1.1"
   id="svg3530"
   inkscape:version="0.92.0 r15299"
   sodipodi:docname="radisson.svg">
  <defs
     id="defs3524" />
  <sodipodi:namedview
     id="base"
     pagecolor="#ffffff"
     bordercolor="#666666"
     borderopacity="1.0"
     inkscape:pageopacity="0.0"
     inkscape:pageshadow="2"
     inkscape:zoom="23.337225"
     inkscape:cx="19.218213"
     inkscape:cy="7.1718098"
     inkscape:document-units="mm"
     inkscape:current-layer="layer1"
     showgrid="false"
     fit-margin-top="0"
     fit-margin-left="0"
     fit-margin-right="0"
     fit-margin-bottom="0"
     units="px"
     inkscape:window-width="1280"
     inkscape:window-height="744"
     inkscape:window-x="-4"
     inkscape:window-y="-4"
     inkscape:window-maximized="1" />
  <metadata
     id="metadata3527">
    <rdf:RDF>
      <cc:Work
         rdf:about="">
        <dc:format>image/svg+xml</dc:format>
        <dc:type
           rdf:resource="http://purl.org/dc/dcmitype/StillImage" />
        <dc:title></dc:title>
      </cc:Work>
    </rdf:RDF>
  </metadata>
  <g
     inkscape:label="Layer 1"
     inkscape:groupmode="layer"
     id="layer1"
     transform="translate(-81.849705,-183.71292)">
    <g
       id="g3608"
       transform="translate(0.13229123,-0.13228891)">
      <path
         d="m 88.022073,185.15589 c -0.09454,-0.2032 -0.161219,-0.0314 -0.161219,-0.0314 -0.06315,0.17639 -0.461434,0.62477 -0.540456,0.70415 -0.332317,0.28822 -0.217311,0.1083 -0.244122,-0.0205 0,0 0.01411,-0.2346 0.08008,-0.28787 0,0 0.03493,0.0155 0.06209,-0.127 0,0 0.08008,-0.18486 -0.134055,-0.21978 0,0 -0.146756,-0.10019 -0.213078,0.18309 0,0 -0.125236,0.53552 0.04586,0.77999 0,0 0.08819,0.16087 0.537281,-0.27728 l -7.06e-4,-10e-4 c 0.156633,-0.15416 0.3937,-0.43286 0.3937,-0.43286 0.251178,0.46073 -0.131586,0.58455 -0.131586,0.58455 -0.143581,0.0935 0.0021,0.11536 0.0021,0.11536 0.589491,0.0124 0.636763,-0.34396 0.636763,-0.34396 0.01411,-0.25611 -0.332669,-0.62547 -0.332669,-0.62547"
         style="fill:#171717;fill-opacity:1;fill-rule:nonzero;stroke:none;stroke-width:0.35277778"
         id="path1052"
         inkscape:connector-curvature="0" />
      <path
         d="m 86.548265,184.0748 c 0,0 -0.191558,-0.24165 -0.159103,0.0367 0,0 0.02611,0.58102 -0.0695,1.30422 -0.01129,-0.0282 -0.02575,-0.0568 -0.04621,-0.0854 0,0 -0.166864,-0.22261 -0.354542,-0.16052 0,0 -0.238477,0.0751 -0.377119,0.43568 0,0 -0.09772,0.24942 -0.06985,0.43674 0,0 -0.0092,0.49318 0.590903,0.14464 0,0 0.0635,-0.0385 0.137936,-0.11395 -0.01411,0.0614 -0.03775,0.10196 -0.04022,0.1651 0,0 -0.02152,0.13018 0.0381,0.16299 0.02258,0.0127 0.04727,-0.005 0.100189,-0.13124 0,0 0.426508,-1.09467 0.449439,-1.54657 0,0 0.149931,-0.22437 -0.200025,-0.64841 m -0.744008,1.96991 c 0,0 -0.0441,-0.0293 -0.04128,-0.16157 0,0 0.01235,-0.22966 0.168275,-0.41381 0,0 0.04339,-0.055 0.07937,-0.0617 0.01164,-0.002 0.03069,0.0152 0.03951,0.0854 0.0021,0.0169 -0.04727,0.0208 -0.02928,0.0755 0,0 0.08326,0.21026 0.258234,0.11536 -0.0074,0.0434 -0.01517,0.0868 -0.02364,0.13017 -0.09102,0.12665 -0.282575,0.34537 -0.451202,0.23072"
         style="fill:#171717;fill-opacity:1;fill-rule:nonzero;stroke:none;stroke-width:0.35277778"
         id="path1056"
         inkscape:connector-curvature="0" />
      <path
         d="m 87.507882,184.6092 c 0.0095,-0.0878 -0.0448,-0.16581 -0.12065,-0.17392 -0.07373,-0.008 -0.140758,0.0529 -0.153106,0.13688 -0.0081,0.036 -0.0081,0.0642 -0.0099,0.10336 -0.0025,0.0346 -0.04657,0.15769 -0.0078,0.16757 0.03845,0.01 0.157691,-0.0642 0.215547,-0.1076 0.04022,-0.0247 0.06985,-0.0709 0.07585,-0.12629"
         style="fill:#171717;fill-opacity:1;fill-rule:nonzero;stroke:none;stroke-width:0.35277778"
         id="path1060"
         inkscape:connector-curvature="0" />
      <path
         d="m 89.95504,185.08699 c 0,0 -0.409222,0.60819 -0.407811,0.81068 0,0 -0.01658,0.18698 0.195439,0.17957 0,0 0.214136,-0.0127 0.367947,-0.13935 0,0 0.09843,-0.0981 0.155928,-0.10971 0,0 0.139347,0.0145 0.09454,-0.17075 0,0 -0.04621,-0.20955 -0.09842,-0.28892 0,0 -0.04727,-0.0931 -0.10548,-0.0575 0,0 -0.05503,0.025 -0.03669,0.12383 0,0 -0.0046,0.004 0.02364,0.084 0,0 0.06597,0.20285 0.02716,0.20849 0,0 -0.01835,0.002 -0.04022,0.0226 -0.01235,0.0116 -0.03704,0.0388 -0.0635,0.0575 0,0 -0.186972,0.12559 -0.144992,-0.0519 0,0 0.02469,-0.10654 0.05151,-0.1725 0,0 0.104069,-0.2921 0.219075,-0.44839 0,0 0.111831,-0.1344 -0.02469,-0.12382 -0.0085,3.5e-4 -0.02893,0.007 -0.03881,0.002 0,0 -0.07197,-0.0614 -0.174625,0.0744"
         style="fill:#171717;fill-opacity:1;fill-rule:nonzero;stroke:none;stroke-width:0.35277778"
         id="path1064"
         inkscape:connector-curvature="0" />
      <path
         d="m 89.100409,185.35369 v 0 c -0.07232,-0.0455 -0.154164,-0.21414 -0.09031,-0.29422 0.02787,-0.0346 0.08467,-0.0656 0.0762,-0.115 -0.01834,-0.10936 -0.209197,3.5e-4 -0.244475,0.13053 -0.07091,0.1972 -0.284339,0.32314 -0.284339,0.32314 -0.03457,0.031 -0.04304,0.11148 -0.04304,0.11148 -0.0067,0.14534 0.08608,0.043 0.08608,0.043 0.13335,-0.10337 0.227894,-0.17639 0.227894,-0.17639 0.251178,0.46037 -0.132291,0.5842 -0.132291,0.5842 -0.05045,0.0194 -0.0628,0.0427 -0.0628,0.0723 0.0014,0.0395 0.06562,0.043 0.06562,0.043 0.589139,0.0123 0.636411,-0.34396 0.636411,-0.34396 0.02716,-0.15805 -0.136878,-0.30974 -0.23495,-0.37818"
         style="fill:#171717;fill-opacity:1;fill-rule:nonzero;stroke:none;stroke-width:0.35277778"
         id="path1068"
         inkscape:connector-curvature="0" />
      <path
         d="m 85.301548,186.06489 c 0,0 -0.0011,-0.007 -0.0071,-0.0123 -0.01588,-0.0109 -0.09384,0.0243 -0.171097,0.0706 -0.01235,0.007 -0.02328,0.0138 -0.03387,0.0194 -0.02822,0.018 -0.05574,0.0353 -0.06668,0.0448 0,0 -0.04974,0.0399 -0.04445,-0.0494 3.52e-4,-0.001 3.52e-4,-0.002 3.52e-4,-0.004 7.06e-4,-0.0198 0.0046,-0.0448 0.006,-0.072 0,0 0.06809,-0.27234 0.09737,-0.34854 0,0 0.01623,-0.072 0.04163,-0.15381 0,0 0.116417,-0.12065 -0.09701,-0.15981 0,0 -0.101953,-0.25083 -0.212019,0.14428 v -3.5e-4 c -0.0074,-0.0406 -0.0448,-0.10301 -0.101953,-0.12806 -0.01164,-0.006 -0.02787,-0.0113 -0.05045,-0.0131 -0.0085,-0.001 -0.01411,0.001 -0.03281,-0.001 0,0 -0.102305,-0.0349 -0.212019,0.10195 -0.116417,0.12806 -0.456495,0.53587 -0.378883,0.87701 0,0 0.04233,0.17674 0.198966,0.17568 0,0 0.207786,0.002 0.36442,-0.14605 0,0 0.04727,-0.042 0.09737,-0.10336 0.0021,0.0212 0.0053,0.0441 0.01164,0.0667 7.06e-4,0.005 0.0018,0.009 0.0032,0.0134 0,0 0.0056,0.0395 0.0381,0.0695 0.02399,0.0219 0.06209,0.0385 0.123472,0.0303 0.006,-0.001 0.0127,-0.003 0.01905,-0.005 0,0 0.219781,-0.0533 0.214489,-0.14676 -0.0028,-0.0462 0.01411,-0.0554 0.01411,-0.0554 0,0 0.01376,-0.008 0.0088,-0.024 0,0 0.17533,-0.11713 0.169333,-0.19121 m -0.633589,0.12982 c -0.01799,0.0289 -0.03493,0.0617 -0.0822,0.0921 0,0 -0.240242,0.14711 -0.231775,-0.0607 0,0 0.0081,-0.11536 0.04762,-0.22225 0,0 0.110772,-0.28152 0.282222,-0.44521 0.01552,-0.0159 0.02928,-0.0176 0.0381,-0.006 0.02399,0.0325 0.02822,0.0699 0.04621,0.10054 0.0049,0.008 0.01023,0.0162 0.01588,0.0247 -0.02046,0.10512 -0.07303,0.3055 -0.0822,0.45649 -0.0063,0.0208 -0.02117,0.0406 -0.03387,0.06"
         style="fill:#171717;fill-opacity:1;fill-rule:nonzero;stroke:none;stroke-width:0.35277778"
         id="path1072"
         inkscape:connector-curvature="0" />
      <path
         d="m 82.992053,185.05415 c -0.01587,-0.0293 -0.05151,-0.013 -0.136525,0.12453 0,0 -0.727428,1.22873 -0.874183,1.81116 0,0 -0.16122,0.40252 0.05468,0.54716 0,0 0.04798,0.0762 0.107245,0.09 0.01623,0.0871 0.04727,0.16757 0.107244,0.14005 0.02081,-0.01 0.02399,-0.0811 0.02152,-0.15064 l 0.0011,3.6e-4 c -0.0014,-0.0582 0.0042,-0.10901 0.01129,-0.14923 0.0049,-0.0166 0.0095,-0.0335 0.01411,-0.0533 0,0 0.0032,-0.0127 0.0092,-0.036 0.0025,-0.008 0.0042,-0.0116 0.0042,-0.0116 l -0.0014,3.5e-4 c 0.06632,-0.26247 0.399698,-1.54975 0.666045,-2.09479 0,0 0.06174,-0.13371 0.01552,-0.21802"
         style="fill:#171717;fill-opacity:1;fill-rule:nonzero;stroke:none;stroke-width:0.35277778"
         id="path1076"
         inkscape:connector-curvature="0" />
      <path
         d="m 91.799609,185.93731 c -0.09843,-0.0607 -0.369711,-0.60642 -0.369711,-0.60642 -0.06279,-0.0945 -0.171097,0.0201 -0.171097,0.0201 -0.07267,0.0561 -0.173567,0.23213 -0.225425,0.33761 -0.06915,0.11818 -0.05151,-0.036 -0.05151,-0.036 0.0035,-0.042 0.01587,-0.10866 0.06279,-0.1397 0,0 0.03634,0.0303 0.07655,-0.10866 0,0 0.07655,-0.18238 -0.112536,-0.23177 0,0 -0.136525,-0.11395 -0.228953,0.16228 0,0 -0.128411,0.39969 -0.07726,0.64875 0,0 0.02364,0.2921 0.270933,0.0635 0.02434,-0.0229 0.0508,-0.0582 0.07832,-0.0977 0.0508,-0.0783 0.06491,-0.10689 0.100189,-0.18838 0.06068,-0.14182 0.167217,-0.26987 0.186267,-0.29139 -0.01376,0.16616 0.1778,0.60466 0.1778,0.60466 0.06703,0.22366 0.17533,0.21554 0.17533,0.21554 0.5588,0.0191 0.108303,-0.35242 0.108303,-0.35242"
         style="fill:#171717;fill-opacity:1;fill-rule:nonzero;stroke:none;stroke-width:0.35277778"
         id="path1080"
         inkscape:connector-curvature="0" />
      <path
         d="m 83.280978,187.25273 c 0.01658,-0.0201 0.03246,-0.0515 0.117475,-0.0723 0,0 2.892778,-0.98249 6.74123,-0.78599 0,0 0.21837,-0.008 0.159103,0.0875 -0.03493,0.0561 -0.09984,0.0596 -0.223308,0.066 0,0 -0.04163,0.007 -0.205317,0.005 0,0 0.393347,0.1531 -1.159933,0.12135 0,0 0.136878,0.1397 -0.43427,0.0995 0,0 -1.593144,-0.0727 -4.812947,0.51117 0,0 -0.253294,0.0547 -0.182033,-0.0317"
         style="fill:#569fa6;fill-opacity:1;fill-rule:nonzero;stroke:none;stroke-width:0.35277778"
         id="path1084"
         inkscape:connector-curvature="0" />
      <path
         d="m 90.560168,186.41718 c 0.117828,0.007 0.250119,0.009 0.433564,0.0265 0.09525,0.01 0.242005,0.01 0.262819,0.0713 0.01905,0.0568 -0.05256,0.115 -0.180975,0.1397 -0.06491,0.0127 -0.105833,0.0233 -0.164041,0.0212 -0.06915,-0.002 -0.217664,0.003 -0.221898,-0.0769 -0.0028,-0.0497 -0.100188,-0.0494 -0.164394,-0.0519 -0.129822,-0.005 -0.116417,-0.042 -0.08819,-0.0861 0.01693,-0.0268 0.05221,-0.0444 0.123119,-0.0437"
         style="fill:#569fa6;fill-opacity:1;fill-rule:nonzero;stroke:none;stroke-width:0.35277778"
         id="path1088"
         inkscape:connector-curvature="0" />
      <path
         d="m 91.891287,185.34554 c 0.05856,0 0.107597,0.0466 0.107597,0.10689 0,0.06 -0.04904,0.10689 -0.107597,0.10689 -0.05891,0 -0.107597,-0.0469 -0.107597,-0.10689 0,-0.0603 0.04868,-0.10689 0.107597,-0.10689 m 0,0.23495 c 0.07126,0 0.128058,-0.0568 0.128058,-0.12806 0,-0.0709 -0.0568,-0.1277 -0.128058,-0.1277 -0.07126,0 -0.128058,0.0568 -0.128058,0.1277 0,0.0713 0.0568,0.12806 0.128058,0.12806 m 0.02222,-0.12171 c 0.01905,-7e-4 0.0381,-0.0109 0.0381,-0.0392 0,-0.0303 -0.02328,-0.0381 -0.04974,-0.0381 h -0.06033 v 0.14358 h 0.02117 v -0.0663 h 0.02646 l 0.03704,0.0663 h 0.02364 z m -0.01482,-0.0561 c 0.01693,0 0.0321,0.001 0.0321,0.0194 0,0.0194 -0.02646,0.0162 -0.04621,0.0162 h -0.02187 v -0.0356 z"
         style="fill:#171717;fill-opacity:1;fill-rule:nonzero;stroke:none;stroke-width:0.35277778"
         id="path1092"
         inkscape:connector-curvature="0" />
      <path
         d="m 84.097059,187.1142 c 0,0 -0.626181,-0.94121 -0.690033,-1.14124 0,0 -0.02787,-0.0758 -0.06632,-0.11959 0.04022,0 0.08537,-0.001 0.137231,-0.004 0,0 0.332317,-0.006 0.472722,-0.26317 0.03845,-0.0702 0.112536,-0.31186 -0.173919,-0.61525 0,0 -0.36195,-0.43003 -1.184628,-0.48471 0,0 -0.221897,-0.10478 -0.645231,0.24588 0,0 -0.159455,0.12665 -0.06985,0.15628 0.04092,0.0134 0.0695,0.0134 0.106892,0.003 0,0 0.687211,-0.23283 1.540933,0.25789 0,0 0.336903,0.21272 0.127353,0.42509 0,0 -0.08326,0.0924 -0.295275,0.12594 0,0 -0.05045,0.01 -0.14993,0.0201 0,0 -0.04974,0.004 -0.117475,0.007 0,0 -0.08573,-7e-4 -0.0949,0.0247 -0.0039,0.0155 0.01058,0.0215 0.05715,0.0441 3.53e-4,0 0,-3.5e-4 0,0 -0.0889,0.01 -0.122413,0.0226 -0.14358,0.0462 0,0 -0.01729,0.0205 -0.0081,0.0434 0.05927,0.15769 0.330906,0.8068 0.944739,1.31621 0,0 0.35313,0.27587 0.4318,0.20779 0.02434,-0.0212 -0.06421,-0.13476 -0.179564,-0.29563"
         style="fill:#171717;fill-opacity:1;fill-rule:nonzero;stroke:none;stroke-width:0.35277778"
         id="path1096"
         inkscape:connector-curvature="0" />
    </g>
  </g>
</svg>
